<svg width="14px" height="14px" viewBox="0 0 14 14" version="1.1" xmlns="http://www.w3.org/2000/svg" xmlns:xlink="http://www.w3.org/1999/xlink">
    <!-- Generator: Sketch 51.1 (57501) - http://www.bohemiancoding.com/sketch -->
    <desc>Created with Sketch.</desc>
    <defs></defs>
    <g id="01-final-work" stroke="none" stroke-width="1" fill="none" fill-rule="evenodd" fill-opacity="0.25">
        <g id="best-case-scenario" transform="translate(-945.000000, -142.000000)" fill="#000000">
            <g id="input-textfield" transform="translate(932.000000, 130.000000)">
                <path d="M22.1237341,23.1237341 C21.2138377,23.6796483 20.1443299,24 19,24 C15.6862915,24 13,21.3137085 13,18 C13,14.6862915 15.6862915,12 19,12 C22.3137085,12 25,14.6862915 25,18 C25,19.1443299 24.6796483,20.2138377 24.1237341,21.1237341 L26.5,23.5 C27.077204,24.077204 27.0829926,24.9170074 26.5,25.5 C25.9218353,26.0781647 25.0743103,26.0743103 24.5,25.5 L22.1237341,23.1237341 Z M19,22 C21.209139,22 23,20.209139 23,18 C23,15.790861 21.209139,14 19,14 C16.790861,14 15,15.790861 15,18 C15,20.209139 16.790861,22 19,22 Z" id="Combined-Shape"></path>
            </g>
        </g>
    </g>
</svg>
