<?xml version="1.0" encoding="UTF-8"?>
<svg width="64px" height="58px" viewBox="0 0 64 58" version="1.1" xmlns="http://www.w3.org/2000/svg" xmlns:xlink="http://www.w3.org/1999/xlink">
    <!-- Generator: Sketch 50.2 (55047) - http://www.bohemiancoding.com/sketch -->
    <title>new page (icon)</title>
    <desc>Created with Sketch.</desc>
    <defs></defs>
    <g id="Page-1" stroke="none" stroke-width="1" fill="none" fill-rule="evenodd">
        <g id="00-00--default-copy-12" transform="translate(-274.000000, -662.000000)">
            <g id="module-(new-page)" transform="translate(248.000000, 634.000000)">
                <g id="new-page-(icon)" transform="translate(26.000000, 28.000000)">
                    <path d="M58,52 L58,48 L60,48 L60,52 L64,52 L64,54 L60,54 L60,58 L58,58 L58,54 L54,54 L54,52 L58,52 Z M30,46 L34,46 L34,48 L30,48 L16,48 L16,46 L30,46 Z M30,38 L34,38 L34,40 L30,40 L20,40 L20,38 L30,38 Z M30,44 L24,44 L24,42 L30,42 L42,42 L42,44 L30,44 Z M30,36 L24,36 L24,34 L30,34 L42,34 L42,36 L30,36 Z M60,46 L58,46 L58,10 L2,10 L2,52 L52,52 L52,54 L2,54 C0.8954305,54 1.3527075e-16,53.1045695 0,52 L0,50 L2,50 L2,48 L1.14423775e-17,48 L0,46 L2,46 L2,44 L1.14423775e-17,44 L0,40 L2,40 L2,38 L1.2326877e-15,38 L0,2 C-1.3527075e-16,0.8954305 0.8954305,2.02906125e-16 2,0 L58,0 C59.1045695,-2.02906125e-16 60,0.8954305 60,2 L60,46 Z M58,8 L58,2 L2,2 L2,8 L58,8 Z M6,7 C4.8954305,7 4,6.1045695 4,5 C4,3.8954305 4.8954305,3 6,3 C7.1045695,3 8,3.8954305 8,5 C8,6.1045695 7.1045695,7 6,7 Z M12,7 C10.8954305,7 10,6.1045695 10,5 C10,3.8954305 10.8954305,3 12,3 C13.1045695,3 14,3.8954305 14,5 C14,6.1045695 13.1045695,7 12,7 Z M18,7 C16.8954305,7 16,6.1045695 16,5 C16,3.8954305 16.8954305,3 18,3 C19.1045695,3 20,3.8954305 20,5 C20,6.1045695 19.1045695,7 18,7 Z M10,34 L22,34 L22,36 L10,36 L10,34 Z M10,42 L22,42 L22,44 L10,44 L10,42 Z M44,34 L50,34 L50,36 L44,36 L44,34 Z M44,42 L50,42 L50,44 L44,44 L44,42 Z M40,38 L50,38 L50,40 L40,40 L40,38 Z M10,38 L14,38 L14,40 L10,40 L10,38 Z M16,38 L18,38 L18,40 L16,40 L16,38 Z M36,38 L38,38 L38,40 L36,40 L36,38 Z M10,46 L14,46 L14,48 L10,48 L10,46 Z M36,46 L50,46 L50,48 L36,48 L36,46 Z M10,14 L50,14 L50,30 L10,30 L10,14 Z" id="Combined-Shape" fill="#CED4D9"></path>
                    <path d="M60,52 L64,52 L64,54 L60,54 L60,58 L58,58 L58,54 L54,54 L54,52 L58,52 L58,48 L60,48 L60,52 Z" id="Combined-Shape" fill="#0D93F2"></path>
                </g>
            </g>
        </g>
    </g>
</svg>
