<?xml version="1.0" encoding="UTF-8"?>
<svg width="64px" height="56px" viewBox="0 0 64 56" version="1.1" xmlns="http://www.w3.org/2000/svg" xmlns:xlink="http://www.w3.org/1999/xlink">
    <!-- Generator: Sketch 50.2 (55047) - http://www.bohemiancoding.com/sketch -->
    <title>new partial (icon)</title>
    <desc>Created with Sketch.</desc>
    <defs></defs>
    <g id="Page-1" stroke="none" stroke-width="1" fill="none" fill-rule="evenodd">
        <g id="00-00--default-copy-13" transform="translate(-665.000000, -664.000000)">
            <g id="new-partial-(icon)" transform="translate(665.000000, 664.000000)">
                <path d="M58,50 L58,46 L60,46 L60,50 L64,50 L64,52 L60,52 L60,56 L58,56 L58,52 L54,52 L54,50 L58,50 Z M52,52 L3,52 C1.34314575,52 2.02906125e-16,50.6568542 0,49 L2.61228947e-17,48 L2,48 L2,49 C2,49.5522847 2.44771525,50 3,50 L52,50 L52,52 Z M60,44 L58,44 L58,34 L53.9987565,34 L53.9987565,32 L60,32 L60,44 Z M-1.11022302e-16,38 L2,38 L2,42 L3.44509285e-16,42 L2.87351842e-16,38 Z M3.39597631e-16,36 L4.4408921e-16,32 L8.34141142,32 L8,30 C8,26.6862915 10.6862915,24 14,24 C17.3137085,24 20,26.6862915 20,30 L19.6585886,32 L37.0249083,32 L37.0249083,34 L16.8304391,34 L17.7729088,31.3335078 C17.9225578,30.9101119 18,30.4617529 18,30 C18,27.790861 16.209139,26 14,26 C11.790861,26 10,27.790861 10,30 C10,30.4617529 10.0774422,30.9101119 10.2270912,31.3335078 L11.1695609,34 L2,34 L2,36 L1.14423775e-17,36 Z M2.22044605e-16,44 L2,44 L2,46 L3.44509285e-16,46 L1.30614473e-16,44 Z M60,8 L60,30 L51.6585886,30 L52,32 C52,35.3137085 49.3137085,38 46,38 C42.6862915,38 40,35.3137085 40,32 L40.3414114,30 L22.9750917,30 L22.9750917,28 L43.1695609,28 L42.2270912,30.6664922 C42.0774422,31.0898881 42,31.5382471 42,32 C42,34.209139 43.790861,36 46,36 C48.209139,36 50,34.209139 50,32 C50,31.5382471 49.9225578,31.0898881 49.7729088,30.6664922 L48.8304391,28 L58,28 L58,10 L2,10 L2,28 L6.00124355,28 L6.00124355,30 L7.10542736e-15,30 L0,8 L0,2 C-1.3527075e-16,0.8954305 0.8954305,2.02906125e-16 2,0 L58,2.22044605e-15 C59.1045695,2.01753992e-15 60,0.8954305 60,2 L60,8 Z M58,8 L58,2 L2,2 L2,8 L3,8 L58,8 Z M6,7 C4.8954305,7 4,6.1045695 4,5 C4,3.8954305 4.8954305,3 6,3 C7.1045695,3 8,3.8954305 8,5 C8,6.1045695 7.1045695,7 6,7 Z M12,7 C10.8954305,7 10,6.1045695 10,5 C10,3.8954305 10.8954305,3 12,3 C13.1045695,3 14,3.8954305 14,5 C14,6.1045695 13.1045695,7 12,7 Z M18,7 C16.8954305,7 16,6.1045695 16,5 C16,3.8954305 16.8954305,3 18,3 C19.1045695,3 20,3.8954305 20,5 C20,6.1045695 19.1045695,7 18,7 Z M20,17 L40,17 L40,19 L20,19 L20,17 Z M25,21 L35,21 L35,23 L25,23 L25,21 Z M6,37 L32,37 L32,39 L6,39 L6,37 Z M6,41 L10,41 L10,43 L6,43 L6,41 Z M28,41 L32,41 L32,43 L28,43 L28,41 Z M17,45 L24,45 L24,47 L17,47 L17,45 Z M26,45 L32,45 L32,47 L26,47 L26,45 Z M12,41 L26,41 L26,43 L12,43 L12,41 Z M6,45 L15,45 L15,47 L6,47 L6,45 Z" id="Combined-Shape" fill="#CED4D9"></path>
                <path d="M60,50 L64,50 L64,52 L60,52 L60,56 L58,56 L58,52 L54,52 L54,50 L58,50 L58,46 L60,46 L60,50 Z" id="Combined-Shape" fill="#0D93F2"></path>
            </g>
        </g>
    </g>
</svg>
