<svg width="96" height="97" viewBox="0 0 96 97" fill="none" xmlns="http://www.w3.org/2000/svg">
<rect width="96" height="96" transform="translate(0 1)" fill="white"/>
<path fill-rule="evenodd" clip-rule="evenodd" d="M13.8 88.83C13.6344 88.83 13.5 88.709 13.5 88.5597L13.5 85.0254C13.5 84.8762 13.6344 84.7552 13.8 84.7552C13.9657 84.7552 14.1 84.8762 14.1 85.0254L14.1 88.5597C14.1 88.709 13.9657 88.83 13.8 88.83ZM13.8 81.7614C13.6344 81.7614 13.5 81.6404 13.5 81.4911L13.5 77.9568C13.5 77.8075 13.6344 77.6865 13.8 77.6865C13.9657 77.6865 14.1 77.8075 14.1 77.9568L14.1 81.4911C14.1 81.6404 13.9657 81.7614 13.8 81.7614ZM13.8 74.6927C13.6344 74.6927 13.5 74.5717 13.5 74.4225L13.5 70.8881C13.5 70.7389 13.6344 70.6179 13.8 70.6179C13.9657 70.6179 14.1 70.7389 14.1 70.8881L14.1 74.4225C14.1 74.5717 13.9657 74.6927 13.8 74.6927ZM13.8 67.6241C13.6344 67.6241 13.5 67.5031 13.5 67.3538L13.5 63.8195C13.5 63.6702 13.6344 63.5492 13.8 63.5492C13.9657 63.5492 14.1 63.6702 14.1 63.8195L14.1 67.3538C14.1 67.5031 13.9657 67.6241 13.8 67.6241ZM13.8 60.5554C13.6344 60.5554 13.5 60.4344 13.5 60.2852L13.5 56.7508C13.5 56.6016 13.6344 56.4806 13.8 56.4806C13.9657 56.4806 14.1 56.6016 14.1 56.7508L14.1 60.2852C14.1 60.4344 13.9657 60.5554 13.8 60.5554ZM13.8 53.4868C13.6344 53.4868 13.5 53.3658 13.5 53.2165L13.5 49.6822C13.5 49.5329 13.6344 49.4119 13.8 49.4119C13.9657 49.4119 14.1 49.5329 14.1 49.6822L14.1 53.2165C14.1 53.3658 13.9657 53.4868 13.8 53.4868ZM13.8 46.4181C13.6344 46.4181 13.5 46.2971 13.5 46.1479L13.5 42.6135C13.5 42.4643 13.6344 42.3433 13.8 42.3433C13.9657 42.3433 14.1 42.4643 14.1 42.6135L14.1 46.1479C14.1 46.2971 13.9657 46.4181 13.8 46.4181ZM13.8 39.3495C13.6344 39.3495 13.5 39.2285 13.5 39.0792L13.5 35.5449C13.5 35.3956 13.6344 35.2746 13.8 35.2746C13.9657 35.2746 14.1 35.3956 14.1 35.5449L14.1 39.0792C14.1 39.2285 13.9657 39.3495 13.8 39.3495ZM13.8 32.2808C13.6344 32.2808 13.5 32.1598 13.5 32.0106L13.5 28.4762C13.5 28.327 13.6344 28.206 13.8 28.206C13.9657 28.206 14.1 28.327 14.1 28.4762L14.1 32.0106C14.1 32.1598 13.9657 32.2808 13.8 32.2808ZM13.8 25.2122C13.6344 25.2122 13.5 25.0912 13.5 24.9419L13.5 21.4076C13.5 21.2583 13.6344 21.1373 13.8 21.1373C13.9657 21.1373 14.1 21.2583 14.1 21.4076L14.1 24.9419C14.1 25.0912 13.9657 25.2122 13.8 25.2122ZM13.8 18.1435C13.6344 18.1435 13.5 18.0225 13.5 17.8733L13.5 14.3389C13.5 14.1897 13.6344 14.0687 13.8 14.0687C13.9657 14.0687 14.1 14.1897 14.1 14.3389L14.1 17.8733C14.1 18.0225 13.9657 18.1435 13.8 18.1435ZM13.8 11.0749C13.6344 11.0749 13.5 10.9539 13.5 10.8046L13.5 7.27029C13.5 7.12103 13.6344 7.00002 13.8 7.00002C13.9657 7.00002 14.1 7.12103 14.1 7.27029L14.1 10.8046C14.1 10.9539 13.9657 11.0749 13.8 11.0749Z" fill="#D6D6D6"/>
<path fill-rule="evenodd" clip-rule="evenodd" d="M81.2 88.83C81.0343 88.83 80.9 88.709 80.9 88.5597L80.9 85.0254C80.9 84.8762 81.0343 84.7552 81.2 84.7552C81.3657 84.7552 81.5 84.8762 81.5 85.0254L81.5 88.5597C81.5 88.709 81.3657 88.83 81.2 88.83ZM81.2 81.7614C81.0343 81.7614 80.9 81.6404 80.9 81.4911L80.9 77.9568C80.9 77.8075 81.0343 77.6865 81.2 77.6865C81.3657 77.6865 81.5 77.8075 81.5 77.9568L81.5 81.4911C81.5 81.6404 81.3657 81.7614 81.2 81.7614ZM81.2 74.6927C81.0343 74.6927 80.9 74.5717 80.9 74.4225L80.9 70.8881C80.9 70.7389 81.0343 70.6179 81.2 70.6179C81.3657 70.6179 81.5 70.7389 81.5 70.8881L81.5 74.4225C81.5 74.5717 81.3657 74.6927 81.2 74.6927ZM81.2 67.6241C81.0343 67.6241 80.9 67.5031 80.9 67.3538L80.9 63.8195C80.9 63.6702 81.0343 63.5492 81.2 63.5492C81.3657 63.5492 81.5 63.6702 81.5 63.8195L81.5 67.3538C81.5 67.5031 81.3657 67.6241 81.2 67.6241ZM81.2 60.5554C81.0343 60.5554 80.9 60.4344 80.9 60.2852L80.9 56.7508C80.9 56.6016 81.0343 56.4806 81.2 56.4806C81.3657 56.4806 81.5 56.6016 81.5 56.7508L81.5 60.2852C81.5 60.4344 81.3657 60.5554 81.2 60.5554ZM81.2 53.4868C81.0343 53.4868 80.9 53.3658 80.9 53.2165L80.9 49.6822C80.9 49.5329 81.0343 49.4119 81.2 49.4119C81.3657 49.4119 81.5 49.5329 81.5 49.6822L81.5 53.2165C81.5 53.3658 81.3657 53.4868 81.2 53.4868ZM81.2 46.4181C81.0343 46.4181 80.9 46.2971 80.9 46.1479L80.9 42.6135C80.9 42.4643 81.0343 42.3433 81.2 42.3433C81.3657 42.3433 81.5 42.4643 81.5 42.6135L81.5 46.1479C81.5 46.2971 81.3657 46.4181 81.2 46.4181ZM81.2 39.3495C81.0343 39.3495 80.9 39.2285 80.9 39.0792L80.9 35.5449C80.9 35.3956 81.0343 35.2746 81.2 35.2746C81.3657 35.2746 81.5 35.3956 81.5 35.5449L81.5 39.0792C81.5 39.2285 81.3657 39.3495 81.2 39.3495ZM81.2 32.2808C81.0343 32.2808 80.9 32.1598 80.9 32.0106L80.9 28.4762C80.9 28.327 81.0343 28.206 81.2 28.206C81.3657 28.206 81.5 28.327 81.5 28.4762L81.5 32.0106C81.5 32.1598 81.3657 32.2808 81.2 32.2808ZM81.2 25.2122C81.0343 25.2122 80.9 25.0912 80.9 24.9419L80.9 21.4076C80.9 21.2583 81.0343 21.1373 81.2 21.1373C81.3657 21.1373 81.5 21.2583 81.5 21.4076L81.5 24.9419C81.5 25.0912 81.3657 25.2122 81.2 25.2122ZM81.2 18.1435C81.0343 18.1435 80.9 18.0225 80.9 17.8733L80.9 14.3389C80.9 14.1897 81.0343 14.0687 81.2 14.0687C81.3657 14.0687 81.5 14.1897 81.5 14.3389L81.5 17.8733C81.5 18.0225 81.3657 18.1435 81.2 18.1435ZM81.2 11.0749C81.0343 11.0749 80.9 10.9539 80.9 10.8046L80.9 7.27029C80.9 7.12103 81.0343 7.00002 81.2 7.00002C81.3657 7.00002 81.5 7.12103 81.5 7.27029L81.5 10.8046C81.5 10.9539 81.3657 11.0749 81.2 11.0749Z" fill="#D6D6D6"/>
<path fill-rule="evenodd" clip-rule="evenodd" d="M90.5 79.6937C90.5 79.8594 90.3726 79.9937 90.2154 79.9937L86.4936 79.9937C86.3364 79.9937 86.209 79.8594 86.209 79.6937C86.209 79.528 86.3364 79.3937 86.4936 79.3937L90.2154 79.3937C90.3726 79.3937 90.5 79.528 90.5 79.6937ZM83.0565 79.6937C83.0565 79.8594 82.929 79.9937 82.7719 79.9937L79.0501 79.9937C78.8929 79.9937 78.7655 79.8594 78.7655 79.6937C78.7655 79.528 78.8929 79.3937 79.0501 79.3937L82.7719 79.3937C82.929 79.3937 83.0565 79.528 83.0565 79.6937ZM75.6129 79.6937C75.6129 79.8594 75.4855 79.9937 75.3283 79.9937L71.6065 79.9937C71.4494 79.9937 71.3219 79.8594 71.3219 79.6937C71.3219 79.528 71.4494 79.3937 71.6065 79.3937L75.3283 79.3937C75.4855 79.3937 75.6129 79.528 75.6129 79.6937ZM68.1694 79.6937C68.1694 79.8594 68.042 79.9937 67.8848 79.9937L64.163 79.9937C64.0058 79.9937 63.8784 79.8594 63.8784 79.6937C63.8784 79.528 64.0058 79.3937 64.163 79.3937L67.8848 79.3937C68.042 79.3937 68.1694 79.528 68.1694 79.6937ZM60.7258 79.6937C60.7258 79.8594 60.5984 79.9937 60.4412 79.9937L56.7195 79.9937C56.5623 79.9937 56.4349 79.8594 56.4349 79.6937C56.4349 79.528 56.5623 79.3937 56.7195 79.3937L60.4412 79.3937C60.5984 79.3937 60.7258 79.528 60.7258 79.6937ZM53.2823 79.6937C53.2823 79.8594 53.1549 79.9937 52.9977 79.9937L49.2759 79.9937C49.1187 79.9937 48.9913 79.8594 48.9913 79.6937C48.9913 79.528 49.1187 79.3937 49.2759 79.3937L52.9977 79.3937C53.1549 79.3937 53.2823 79.528 53.2823 79.6937ZM45.8388 79.6937C45.8388 79.8594 45.7113 79.9937 45.5541 79.9937L41.8324 79.9937C41.6752 79.9937 41.5478 79.8594 41.5478 79.6937C41.5478 79.528 41.6752 79.3937 41.8324 79.3937L45.5541 79.3937C45.7113 79.3937 45.8388 79.528 45.8388 79.6937ZM38.3952 79.6937C38.3952 79.8594 38.2678 79.9937 38.1106 79.9937L34.3888 79.9937C34.2316 79.9937 34.1042 79.8594 34.1042 79.6937C34.1042 79.528 34.2316 79.3937 34.3888 79.3937L38.1106 79.3937C38.2678 79.3937 38.3952 79.528 38.3952 79.6937ZM30.9517 79.6937C30.9517 79.8594 30.8242 79.9937 30.6671 79.9937L26.9453 79.9937C26.7881 79.9937 26.6607 79.8594 26.6607 79.6937C26.6607 79.528 26.7881 79.3937 26.9453 79.3937L30.6671 79.3937C30.8242 79.3937 30.9517 79.528 30.9517 79.6937ZM23.5081 79.6937C23.5081 79.8594 23.3807 79.9937 23.2235 79.9937L19.5017 79.9937C19.3446 79.9937 19.2171 79.8594 19.2171 79.6937C19.2171 79.528 19.3446 79.3937 19.5017 79.3937L23.2235 79.3937C23.3807 79.3937 23.5081 79.528 23.5081 79.6937ZM16.0646 79.6937C16.0646 79.8594 15.9371 79.9937 15.78 79.9937L12.0582 79.9937C11.901 79.9937 11.7736 79.8594 11.7736 79.6937C11.7736 79.528 11.901 79.3937 12.0582 79.3937L15.78 79.3937C15.9371 79.3937 16.0646 79.528 16.0646 79.6937ZM8.62102 79.6937C8.62102 79.8594 8.49359 79.9937 8.33641 79.9937L4.61463 79.9937C4.45745 79.9937 4.33003 79.8594 4.33003 79.6937C4.33003 79.528 4.45745 79.3937 4.61463 79.3937L8.33641 79.3937C8.49359 79.3937 8.62102 79.528 8.62102 79.6937Z" fill="#D6D6D6"/>
<path fill-rule="evenodd" clip-rule="evenodd" d="M90.5 16.3C90.5 16.4657 90.3726 16.6 90.2154 16.6L86.4936 16.6C86.3364 16.6 86.209 16.4657 86.209 16.3C86.209 16.1343 86.3364 16 86.4936 16L90.2154 16C90.3726 16 90.5 16.1343 90.5 16.3ZM83.0565 16.3C83.0565 16.4657 82.929 16.6 82.7719 16.6L79.0501 16.6C78.8929 16.6 78.7655 16.4657 78.7655 16.3C78.7655 16.1343 78.8929 16 79.0501 16L82.7719 16C82.929 16 83.0565 16.1343 83.0565 16.3ZM75.6129 16.3C75.6129 16.4657 75.4855 16.6 75.3283 16.6L71.6065 16.6C71.4494 16.6 71.3219 16.4657 71.3219 16.3C71.3219 16.1343 71.4494 16 71.6065 16L75.3283 16C75.4855 16 75.6129 16.1343 75.6129 16.3ZM68.1694 16.3C68.1694 16.4657 68.042 16.6 67.8848 16.6L64.163 16.6C64.0058 16.6 63.8784 16.4657 63.8784 16.3C63.8784 16.1343 64.0058 16 64.163 16L67.8848 16C68.042 16 68.1694 16.1343 68.1694 16.3ZM60.7258 16.3C60.7258 16.4657 60.5984 16.6 60.4412 16.6L56.7195 16.6C56.5623 16.6 56.4349 16.4657 56.4349 16.3C56.4349 16.1343 56.5623 16 56.7195 16L60.4412 16C60.5984 16 60.7258 16.1343 60.7258 16.3ZM53.2823 16.3C53.2823 16.4657 53.1549 16.6 52.9977 16.6L49.2759 16.6C49.1187 16.6 48.9913 16.4657 48.9913 16.3C48.9913 16.1343 49.1187 16 49.2759 16L52.9977 16C53.1549 16 53.2823 16.1343 53.2823 16.3ZM45.8388 16.3C45.8388 16.4657 45.7113 16.6 45.5541 16.6L41.8324 16.6C41.6752 16.6 41.5478 16.4657 41.5478 16.3C41.5478 16.1343 41.6752 16 41.8324 16L45.5541 16C45.7113 16 45.8388 16.1343 45.8388 16.3ZM38.3952 16.3C38.3952 16.4657 38.2678 16.6 38.1106 16.6L34.3888 16.6C34.2316 16.6 34.1042 16.4657 34.1042 16.3C34.1042 16.1343 34.2316 16 34.3888 16L38.1106 16C38.2678 16 38.3952 16.1343 38.3952 16.3ZM30.9517 16.3C30.9517 16.4657 30.8242 16.6 30.6671 16.6L26.9453 16.6C26.7881 16.6 26.6607 16.4657 26.6607 16.3C26.6607 16.1343 26.7881 16 26.9453 16L30.6671 16C30.8242 16 30.9517 16.1343 30.9517 16.3ZM23.5081 16.3C23.5081 16.4657 23.3807 16.6 23.2235 16.6L19.5017 16.6C19.3446 16.6 19.2171 16.4657 19.2171 16.3C19.2171 16.1343 19.3446 16 19.5017 16L23.2235 16C23.3807 16 23.5081 16.1343 23.5081 16.3ZM16.0646 16.3C16.0646 16.4657 15.9371 16.6 15.78 16.6L12.0582 16.6C11.901 16.6 11.7736 16.4657 11.7736 16.3C11.7736 16.1343 11.901 16 12.0582 16L15.78 16C15.9371 16 16.0646 16.1343 16.0646 16.3ZM8.62102 16.3C8.62102 16.4657 8.49359 16.6 8.33641 16.6L4.61463 16.6C4.45745 16.6 4.33003 16.4657 4.33003 16.3C4.33003 16.1343 4.45745 16 4.61463 16L8.33641 16C8.49359 16 8.62102 16.1343 8.62102 16.3Z" fill="#D6D6D6"/>
<circle opacity="0.5" cx="47.5" cy="48.2937" r="47" stroke="#B6B6BD" stroke-width="0.6" stroke-linecap="round" stroke-dasharray="4 4"/>
<path fill-rule="evenodd" clip-rule="evenodd" d="M45.5001 25.5C45.3711 25.6039 45.185 25.587 45.0845 25.4622L43.3582 23.3253C43.2577 23.2005 43.2808 23.0151 43.4098 22.9112C43.5389 22.8073 43.7249 22.8242 43.8254 22.949L45.5518 25.0859C45.6523 25.2106 45.6292 25.396 45.5001 25.5ZM41.3942 20.4087C41.2652 20.5126 41.0791 20.4957 40.9786 20.3709L39.5001 18.5C39.3996 18.3752 39.4228 18.1898 39.5518 18.0859C39.6808 17.9819 39.8669 17.9988 39.9674 18.1236L41.4459 19.9946C41.5464 20.1194 41.5233 20.3048 41.3942 20.4087Z" fill="#D6D6D6"/>
<path fill-rule="evenodd" clip-rule="evenodd" d="M37.7542 39.3206C37.6252 39.4246 37.4391 39.4077 37.3386 39.2829L34.9591 36.3285C34.8586 36.2037 34.8817 36.0183 35.0108 35.9144C35.1398 35.8105 35.3259 35.8274 35.4264 35.9521L37.8059 38.9065C37.9064 39.0313 37.8832 39.2167 37.7542 39.3206ZM32.9952 33.4119C32.8661 33.5158 32.6801 33.4989 32.5796 33.3741L30.2001 30.4198C30.0996 30.295 30.1227 30.1096 30.2517 30.0057C30.3808 29.9017 30.5668 29.9186 30.6673 30.0434L33.0468 32.9978C33.1473 33.1225 33.1242 33.3079 32.9952 33.4119ZM28.2361 27.5031C28.1071 27.6071 27.921 27.5902 27.8205 27.4654L25.441 24.511C25.3405 24.3862 25.3637 24.2008 25.4927 24.0969C25.6217 23.993 25.8078 24.0099 25.9083 24.1346L28.2878 27.089C28.3883 27.2138 28.3652 27.3992 28.2361 27.5031ZM23.4771 21.5944C23.3481 21.6983 23.162 21.6814 23.0615 21.5566L20.682 18.6023C20.5815 18.4775 20.6046 18.2921 20.7337 18.1882C20.8627 18.0842 21.0488 18.1011 21.1493 18.2259L23.5288 21.1803C23.6293 21.305 23.6061 21.4904 23.4771 21.5944Z" fill="#D6D6D6"/>
<path d="M34.328 65.5915H34.0739L33.9241 65.7968L25.6726 77.1043L25.6717 77.1056L23.9362 79.5H14V66.2915L23.7168 53.2265H27.2468H27.4399L27.5828 53.0968L36.9337 44.6103L49.3188 60.173L45.9768 65.5915H34.328ZM38.4393 77.1691L38.4633 76.9935L38.3713 76.842L34.7457 70.8699L36.076 69.094H48.0582L54.2191 77.1825L53.3283 79.5H38.1213L38.4393 77.1691ZM67.5699 76.9163L67.6302 76.6755L67.4747 76.4819L39.5977 41.7692L45.054 31.718L51.2049 31.7084L80.9629 68.7543L78.7569 79.5H66.9237L67.5699 76.9163ZM68.3891 29.0544L68.1169 29.3479L68.3437 29.6778L70.6783 33.0728V36.4535L64.278 41.9013L52.8865 27.8472L52.7364 27.662H52.4981H46.504L48.8227 23.2242L56.5775 16.6511L69.8161 27.5164L68.3891 29.0544Z" stroke="#169FCC"/>
</svg>
