<svg width="16px" height="16px" viewBox="0 0 16 16" version="1.1" xmlns="http://www.w3.org/2000/svg" xmlns:xlink="http://www.w3.org/1999/xlink">
    <g id="Page-1" stroke="none" stroke-width="1" fill="none" fill-rule="evenodd">
        <g id="Editor-Copy" transform="translate(-1017.000000, -88.000000)" fill="#FFFFFF">
            <g id="tools" transform="translate(870.000000, 80.000000)">
                <g id="Group" transform="translate(147.000000, 8.000000)">
                    <path d="M7,0 L7,16 L2,16 C0.8954305,16 1.3527075e-16,15.1045695 0,14 L0,2 C-1.3527075e-16,0.8954305 0.8954305,2.02906125e-16 2,0 L7,0 Z M9,0 L14,0 C15.1045695,-2.02906125e-16 16,0.8954305 16,2 L16,14 C16,15.1045695 15.1045695,16 14,16 L9,16 L9,0 Z M2,4 L2,14 L7,14 L7,4 L2,4 Z M9,2 L9,14 L14,14 L14,2 L9,2 Z M9,4 L12,4 L12,8 L9,8 L9,4 Z M9,10 L12,10 L12,12 L9,12 L9,10 Z M4,6 L6,6 L6,8 L4,8 L4,6 Z M6,10 L7,10 L7,12 L6,12 L6,10 Z" id="Combined-Shape"></path>
                </g>
            </g>
        </g>
    </g>
</svg>
