<svg width="18" height="16" viewBox="0 0 18 16" fill="none" xmlns="http://www.w3.org/2000/svg">
<path fill-rule="evenodd" clip-rule="evenodd" d="M6.02002 13.4446L6.40545 12.9314H9.2576L10.7442 14.891L10.4799 15.5559H6.80188L6.88998 14.891L6.02002 13.4446Z" fill="#169FCC"/>
<path fill-rule="evenodd" clip-rule="evenodd" d="M6.89111 6.76305L8.2683 4.30835H9.87312L17.0664 12.9286L16.5087 15.5562H13.4242L13.6177 14.8186L6.89111 6.76305Z" fill="#14B59A"/>
<path fill-rule="evenodd" clip-rule="evenodd" d="M8.56543 3.8418L9.22486 2.58366L11.2032 0.933838L14.5929 3.67563L14.1532 4.13853L14.7433 4.98124V5.88331L13.0542 7.30761L10.2198 3.8418H8.56543Z" fill="#1BC263"/>
<path fill-rule="evenodd" clip-rule="evenodd" d="M3.32568 9.32377H4.22166L6.55802 7.3075L9.65426 11.0193L8.78096 12.3711H5.92289L3.94947 14.9602L3.4958 15.5559H0.932617V12.3826L3.32568 9.32377Z" fill="#16BDCC"/>
</svg>
