<?xml version="1.0" encoding="UTF-8"?>
<svg width="54px" height="64px" viewBox="0 0 54 64" version="1.1" xmlns="http://www.w3.org/2000/svg" xmlns:xlink="http://www.w3.org/1999/xlink">
    <!-- Generator: Sketch 50.2 (55047) - http://www.bohemiancoding.com/sketch -->
    <title>new spec (icon)</title>
    <desc>Created with Sketch.</desc>
    <defs></defs>
    <g id="Page-1" stroke="none" stroke-width="1" fill="none" fill-rule="evenodd">
        <g id="00-00--default-copy-12" transform="translate(-1063.000000, -659.000000)">
            <g id="new-spec-(icon)" transform="translate(1063.000000, 659.000000)">
                <path d="M2,44 L2,48 L1.14423775e-17,48 L0,44 L2,44 Z M2,42 L1.2326877e-15,42 L0,2 C-1.3527075e-16,0.8954305 0.8954305,2.02906125e-16 2,0 L34,0 L36,0 L50,13.9986115 L50,14 L50,16 L50,52 L48,52 L48,16 L36,16 C34.8954305,16 34,15.1045695 34,14 L34,2 L2,2 L2,42 Z M2,50 L2,52 L1.14423775e-17,52 L0,50 L2,50 Z M2,54 L2,58 L42,58 L42,60 L2,60 C0.8954305,60 1.3527075e-16,59.1045695 0,58 L0,54 L2,54 Z M47,14 L36,3 L36,14 L47,14 Z M32.5742188,43 L32,41.1788452 C33.0322317,40.7891311 33.5654295,39.7174334 33.5996094,37.96372 L33.5996094,35.5804803 C33.5996094,33.8792284 34.2114197,32.6838733 35.4350586,31.9943792 C34.2114197,31.3123795 33.5996094,30.1245188 33.5996094,28.4307614 L33.5996094,26.0700051 C33.5859374,25.1481814 33.4458021,24.4268464 33.1791992,23.9059785 C32.9125963,23.3851107 32.5195338,23.0197592 32,22.8099131 L32.5742188,21 C33.8046937,21.3822196 34.727536,22.0005067 35.3427734,22.8548799 C35.9580109,23.7092531 36.265625,24.8296643 36.265625,26.2161472 L36.265625,28.5993868 C36.2929689,30.0907927 37.8105409,30.8364844 39,30.8364844 L39,33.1635156 C37.783197,33.1635156 36.265625,33.9541737 36.265625,35.5355135 L36.265625,37.7726111 C36.265625,40.5006098 35.0351686,42.2430553 32.5742188,43 Z M17.4257812,43 C14.9648314,42.2430553 13.734375,40.5006098 13.734375,37.7726111 L13.734375,35.5355135 C13.734375,33.9541737 12.216803,33.1635156 11,33.1635156 L11,30.8364844 C12.1894591,30.8364844 13.7070311,30.0907927 13.734375,28.5993868 L13.734375,26.2161472 C13.734375,24.8296643 14.0419891,23.7092531 14.6572266,22.8548799 C15.272464,22.0005067 16.1953063,21.3822196 17.4257812,21 L18,22.8099131 C17.4804662,23.0197592 17.0874037,23.3851107 16.8208008,23.9059785 C16.5541979,24.4268464 16.4140626,25.1481814 16.4003906,26.0700051 L16.4003906,28.4307614 C16.4003906,30.1245188 15.7885803,31.3123795 14.5649414,31.9943792 C15.7885803,32.6838733 16.4003906,33.8792284 16.4003906,35.5804803 L16.4003906,37.96372 C16.4345705,39.7174334 16.9677683,40.7891311 18,41.1788452 L17.4257812,43 Z M20,34 C18.8954305,34 18,33.1045695 18,32 C18,30.8954305 18.8954305,30 20,30 C21.1045695,30 22,30.8954305 22,32 C22,33.1045695 21.1045695,34 20,34 Z M25,34 C23.8954305,34 23,33.1045695 23,32 C23,30.8954305 23.8954305,30 25,30 C26.1045695,30 27,30.8954305 27,32 C27,33.1045695 26.1045695,34 25,34 Z M30,34 C28.8954305,34 28,33.1045695 28,32 C28,30.8954305 28.8954305,30 30,30 C31.1045695,30 32,30.8954305 32,32 C32,33.1045695 31.1045695,34 30,34 Z" id="Combined-Shape" fill="#CED4D9"></path>
                <path d="M50,58 L54,58 L54,60 L50,60 L50,64 L48,64 L48,60 L44,60 L44,58 L48,58 L48,54 L50,54 L50,58 Z" id="Combined-Shape" fill="#0D93F2"></path>
            </g>
        </g>
    </g>
</svg>
